<svg id="WorkMeOut_Logo" xmlns="http://www.w3.org/2000/svg" width="500" height="500" viewBox="0 0 500 500">
  <g id="Ellipse_2" data-name="Ellipse 2" fill="#fff" stroke="#707070" stroke-width="1">
    <circle cx="250" cy="250" r="250" stroke="none"/>
    <circle cx="250" cy="250" r="249.5" fill="none"/>
  </g>
  <line id="_55" data-name="55" y2="20" transform="translate(135 50.814) rotate(-30)" fill="none" stroke="#707070" stroke-width="3"/>
  <line id="_50" data-name="50" y2="20" transform="translate(50.814 135) rotate(-60)" fill="none" stroke="#707070" stroke-width="3"/>
  <line id="_45" data-name="45" y2="20" transform="translate(20 250) rotate(-90)" fill="none" stroke="#707070" stroke-width="3" opacity="0.7"/>
  <line id="_40" data-name="40" y2="20" transform="translate(50.814 365) rotate(-120)" fill="none" stroke="#707070" stroke-width="3"/>
  <line id="_35" data-name="35" y2="20" transform="translate(135 449.186) rotate(-150)" fill="none" stroke="#707070" stroke-width="3"/>
  <line id="_30" data-name="30" y2="20" transform="translate(250 480) rotate(180)" fill="none" stroke="#707070" stroke-width="3"/>
  <line id="_25" data-name="25" y2="20" transform="translate(365 449.186) rotate(150)" fill="none" stroke="#707070" stroke-width="3"/>
  <line id="_20" data-name="20" y2="20" transform="translate(449.186 365) rotate(120)" fill="none" stroke="#707070" stroke-width="3"/>
  <line id="_15" data-name="15" y2="20" transform="translate(480 250) rotate(90)" fill="none" stroke="#707070" stroke-width="3"/>
  <line id="_10" data-name="10" y2="20" transform="translate(449.186 135) rotate(60)" fill="none" stroke="#707070" stroke-width="3"/>
  <line id="_5" data-name="5" y2="20" transform="translate(365 50.814) rotate(30)" fill="none" stroke="#707070" stroke-width="3"/>
  <line id="_0" data-name="0" y2="20" transform="translate(250 20)" fill="none" stroke="#707070" stroke-width="3"/>
  <line id="Template" y2="10" transform="matrix(0.995, 0.105, -0.105, 0.995, 274.042, 21.26)" fill="none" stroke="#707070" stroke-width="1"/>
  <line id="Template-2" data-name="Template" y2="10" transform="matrix(0.978, 0.208, -0.208, 0.978, 297.82, 25.026)" fill="none" stroke="#707070" stroke-width="1"/>
  <line id="Template-3" data-name="Template" y2="10" transform="matrix(0.951, 0.309, -0.309, 0.951, 321.074, 31.257)" fill="none" stroke="#707070" stroke-width="1"/>
  <line id="Template-4" data-name="Template" y2="10" transform="matrix(0.914, 0.407, -0.407, 0.914, 343.549, 39.885)" fill="none" stroke="#707070" stroke-width="1"/>
  <line id="Template-5" data-name="Template" y2="10" transform="translate(250 20)" fill="none" stroke="#707070" stroke-width="1"/>
  <line id="Template-6" data-name="Template" y2="10" transform="translate(250 20)" fill="none" stroke="#707070" stroke-width="1"/>
  <line id="Template-7" data-name="Template" y2="10" transform="translate(250 20)" fill="none" stroke="#707070" stroke-width="1"/>
  <line id="Template-8" data-name="Template" y2="10" transform="translate(250 20)" fill="none" stroke="#707070" stroke-width="1"/>
  <line id="Template-9" data-name="Template" y2="10" transform="matrix(0.995, -0.105, 0.105, 0.995, 225.958, 21.26)" fill="none" stroke="#707070" stroke-width="1"/>
  <line id="Template-10" data-name="Template" y2="10" transform="matrix(0.978, -0.208, 0.208, 0.978, 202.18, 25.026)" fill="none" stroke="#707070" stroke-width="1"/>
  <line id="Template-11" data-name="Template" y2="10" transform="matrix(0.951, -0.309, 0.309, 0.951, 178.926, 31.257)" fill="none" stroke="#707070" stroke-width="1"/>
  <line id="Template-12" data-name="Template" y2="10" transform="matrix(0.914, -0.407, 0.407, 0.914, 156.451, 39.885)" fill="none" stroke="#707070" stroke-width="1"/>
  <line id="Template-13" data-name="Template" y2="10" transform="matrix(0.809, -0.588, 0.588, 0.809, 114.809, 63.926)" fill="none" stroke="#707070" stroke-width="1"/>
  <line id="Template-14" data-name="Template" y2="10" transform="translate(96.1 79.077) rotate(-42)" fill="none" stroke="#707070" stroke-width="1"/>
  <line id="Template-15" data-name="Template" y2="10" transform="translate(79.077 96.1) rotate(-48)" fill="none" stroke="#707070" stroke-width="1"/>
  <line id="Template-16" data-name="Template" y2="10" transform="matrix(0.588, -0.809, 0.809, 0.588, 63.926, 114.809)" fill="none" stroke="#707070" stroke-width="1"/>
  <line id="Template-17" data-name="Template" y2="10" transform="matrix(0.407, -0.914, 0.914, 0.407, 39.885, 156.451)" fill="none" stroke="#707070" stroke-width="1"/>
  <line id="Template-18" data-name="Template" y2="10" transform="matrix(0.309, -0.951, 0.951, 0.309, 31.257, 178.926)" fill="none" stroke="#707070" stroke-width="1"/>
  <line id="Template-19" data-name="Template" y2="10" transform="matrix(0.208, -0.978, 0.978, 0.208, 25.026, 202.18)" fill="none" stroke="#707070" stroke-width="1"/>
  <line id="Template-20" data-name="Template" y2="10" transform="matrix(0.105, -0.995, 0.995, 0.105, 21.26, 225.958)" fill="none" stroke="#707070" stroke-width="1"/>
  <line id="Template-21" data-name="Template" y2="10" transform="matrix(-0.105, -0.995, 0.995, -0.105, 21.26, 274.042)" fill="none" stroke="#707070" stroke-width="1"/>
  <line id="Template-22" data-name="Template" y2="10" transform="matrix(-0.208, -0.978, 0.978, -0.208, 25.026, 297.82)" fill="none" stroke="#707070" stroke-width="1"/>
  <line id="Template-23" data-name="Template" y2="10" transform="matrix(-0.309, -0.951, 0.951, -0.309, 31.257, 321.074)" fill="none" stroke="#707070" stroke-width="1"/>
  <line id="Template-24" data-name="Template" y2="10" transform="matrix(-0.407, -0.914, 0.914, -0.407, 39.885, 343.549)" fill="none" stroke="#707070" stroke-width="1"/>
  <line id="Template-25" data-name="Template" y2="10" transform="matrix(-0.588, -0.809, 0.809, -0.588, 63.926, 385.191)" fill="none" stroke="#707070" stroke-width="1"/>
  <line id="Template-26" data-name="Template" y2="10" transform="translate(79.077 403.9) rotate(-132)" fill="none" stroke="#707070" stroke-width="1"/>
  <line id="Template-27" data-name="Template" y2="10" transform="translate(96.1 420.923) rotate(-138)" fill="none" stroke="#707070" stroke-width="1"/>
  <line id="Template-28" data-name="Template" y2="10" transform="matrix(-0.809, -0.588, 0.588, -0.809, 114.809, 436.074)" fill="none" stroke="#707070" stroke-width="1"/>
  <line id="Template-29" data-name="Template" y2="10" transform="matrix(-0.914, -0.407, 0.407, -0.914, 156.451, 460.115)" fill="none" stroke="#707070" stroke-width="1"/>
  <line id="Template-30" data-name="Template" y2="10" transform="matrix(-0.951, -0.309, 0.309, -0.951, 178.926, 468.743)" fill="none" stroke="#707070" stroke-width="1"/>
  <line id="Template-31" data-name="Template" y2="10" transform="matrix(-0.978, -0.208, 0.208, -0.978, 202.18, 474.974)" fill="none" stroke="#707070" stroke-width="1"/>
  <line id="Template-32" data-name="Template" y2="10" transform="matrix(-0.995, -0.105, 0.105, -0.995, 225.958, 478.74)" fill="none" stroke="#707070" stroke-width="1"/>
  <line id="Template-33" data-name="Template" y2="10" transform="matrix(-0.995, 0.105, -0.105, -0.995, 274.042, 478.74)" fill="none" stroke="#707070" stroke-width="1"/>
  <line id="Template-34" data-name="Template" y2="10" transform="matrix(-0.978, 0.208, -0.208, -0.978, 297.82, 474.974)" fill="none" stroke="#707070" stroke-width="1"/>
  <line id="Template-35" data-name="Template" y2="10" transform="matrix(-0.951, 0.309, -0.309, -0.951, 321.074, 468.743)" fill="none" stroke="#707070" stroke-width="1"/>
  <line id="Template-36" data-name="Template" y2="10" transform="matrix(-0.914, 0.407, -0.407, -0.914, 343.549, 460.115)" fill="none" stroke="#707070" stroke-width="1"/>
  <line id="Template-37" data-name="Template" y2="10" transform="matrix(-0.809, 0.588, -0.588, -0.809, 385.191, 436.074)" fill="none" stroke="#707070" stroke-width="1"/>
  <line id="Template-38" data-name="Template" y2="10" transform="translate(403.9 420.923) rotate(138)" fill="none" stroke="#707070" stroke-width="1"/>
  <line id="Template-39" data-name="Template" y2="10" transform="translate(420.923 403.9) rotate(132)" fill="none" stroke="#707070" stroke-width="1"/>
  <line id="Template-40" data-name="Template" y2="10" transform="matrix(-0.588, 0.809, -0.809, -0.588, 436.074, 385.191)" fill="none" stroke="#707070" stroke-width="1"/>
  <line id="Template-41" data-name="Template" y2="10" transform="matrix(-0.407, 0.914, -0.914, -0.407, 460.115, 343.549)" fill="none" stroke="#707070" stroke-width="1"/>
  <line id="Template-42" data-name="Template" y2="10" transform="matrix(-0.309, 0.951, -0.951, -0.309, 468.743, 321.074)" fill="none" stroke="#707070" stroke-width="1"/>
  <line id="Template-43" data-name="Template" y2="10" transform="matrix(-0.208, 0.978, -0.978, -0.208, 474.974, 297.82)" fill="none" stroke="#707070" stroke-width="1"/>
  <line id="Template-44" data-name="Template" y2="10" transform="matrix(-0.105, 0.995, -0.995, -0.105, 478.74, 274.042)" fill="none" stroke="#707070" stroke-width="1"/>
  <line id="Template-45" data-name="Template" y2="10" transform="matrix(0.105, 0.995, -0.995, 0.105, 478.74, 225.958)" fill="none" stroke="#707070" stroke-width="1"/>
  <line id="Template-46" data-name="Template" y2="10" transform="matrix(0.208, 0.978, -0.978, 0.208, 474.974, 202.18)" fill="none" stroke="#707070" stroke-width="1"/>
  <line id="Template-47" data-name="Template" y2="10" transform="matrix(0.309, 0.951, -0.951, 0.309, 468.743, 178.926)" fill="none" stroke="#707070" stroke-width="1"/>
  <line id="Template-48" data-name="Template" y2="10" transform="matrix(0.407, 0.914, -0.914, 0.407, 460.115, 156.451)" fill="none" stroke="#707070" stroke-width="1"/>
  <line id="Template-49" data-name="Template" y2="10" transform="matrix(0.588, 0.809, -0.809, 0.588, 436.074, 114.809)" fill="none" stroke="#707070" stroke-width="1"/>
  <line id="Template-50" data-name="Template" y2="10" transform="translate(420.923 96.1) rotate(48)" fill="none" stroke="#707070" stroke-width="1"/>
  <line id="Template-51" data-name="Template" y2="10" transform="translate(403.9 79.077) rotate(42)" fill="none" stroke="#707070" stroke-width="1"/>
  <line id="Template-52" data-name="Template" y2="10" transform="matrix(0.809, 0.588, -0.588, 0.809, 385.191, 63.926)" fill="none" stroke="#707070" stroke-width="1"/>
  <g id="Rectangle_3" data-name="Rectangle 3" transform="translate(300 200)" fill="#fff" stroke="#707070" stroke-width="3">
    <rect width="20" height="100" stroke="none"/>
    <rect x="1.5" y="1.5" width="17" height="97" fill="none"/>
  </g>
  <g id="Rectangle_4" data-name="Rectangle 4" transform="translate(320 210)" fill="#fff" stroke="#707070" stroke-width="3">
    <rect width="20" height="80" stroke="none"/>
    <rect x="1.5" y="1.5" width="17" height="77" fill="none"/>
  </g>
  <g id="Rectangle_5" data-name="Rectangle 5" transform="translate(340 220)" fill="#fff" stroke="#707070" stroke-width="3">
    <rect width="20" height="60" stroke="none"/>
    <rect x="1.5" y="1.5" width="17" height="57" fill="none"/>
  </g>
  <g id="Rectangle_6" data-name="Rectangle 6" transform="translate(180 200)" fill="#fff" stroke="#707070" stroke-width="3">
    <rect width="20" height="100" stroke="none"/>
    <rect x="1.5" y="1.5" width="17" height="97" fill="none"/>
  </g>
  <g id="Rectangle_7" data-name="Rectangle 7" transform="translate(160 210)" fill="#fff" stroke="#707070" stroke-width="3">
    <rect width="20" height="80" stroke="none"/>
    <rect x="1.5" y="1.5" width="17" height="77" fill="none"/>
  </g>
  <g id="Rectangle_8" data-name="Rectangle 8" transform="translate(140 220)" fill="#fff" stroke="#707070" stroke-width="3">
    <rect width="20" height="60" stroke="none"/>
    <rect x="1.5" y="1.5" width="17" height="57" fill="none"/>
  </g>
  <line id="Line_12" data-name="Line 12" x2="100" transform="translate(200 240)" fill="none" stroke="#707070" stroke-width="3"/>
  <line id="Line_13" data-name="Line 13" x2="100" transform="translate(200 260)" fill="none" stroke="#707070" stroke-width="3"/>
</svg>
